<svg width="25" height="25" viewBox="0 0 25 25" fill="none" xmlns="http://www.w3.org/2000/svg">
<path d="M7.13265 15.7233H8.26186L8.66209 15.3373C7.26129 13.7078 6.41795 11.5923 6.41795 9.29102C6.41795 4.15952 10.5775 0 15.709 0C20.8405 0 25 4.15952 25 9.29102C25 14.4225 20.8405 18.582 15.709 18.582C13.4077 18.582 11.2922 17.7387 9.66266 16.3379L9.27673 16.7381V17.8674L2.12979 25L0 22.8702L7.13265 15.7233ZM15.709 15.7233C19.2682 15.7233 22.1412 12.8502 22.1412 9.29102C22.1412 5.73185 19.2682 2.85878 15.709 2.85878C12.1498 2.85878 9.27673 5.73185 9.27673 9.29102C9.27673 12.8502 12.1498 15.7233 15.709 15.7233Z" fill="#2CB1BC"/>
</svg>
