<svg width="130" height="48" viewBox="0 0 130 48" fill="none" xmlns="http://www.w3.org/2000/svg">
<path d="M11.4422 28.2385H22.629L21.2498 35.8056H0L6.38517 0.00158691H16.3971L11.4422 28.2385Z" fill="white"/>
<path d="M91.6895 2.51484C93.6647 4.19077 94.6522 6.41783 94.6522 9.19224C94.6522 10.0387 94.5841 10.8005 94.4479 11.4776C94.0392 13.9153 93.0006 16.0577 91.3319 17.903C89.6633 19.7482 87.4498 21.0611 84.6914 21.8379L90.3103 35.804H79.1746L74.3729 22.5997H73.3002L70.9505 35.804H60.8875L67.2726 0H83.0568C86.8368 0 89.7144 0.838906 91.6895 2.51484ZM74.5262 15.7963H79.4811C82.1373 15.7963 83.7038 14.5436 84.1805 12.0381C84.2487 11.6318 84.2827 11.3441 84.2827 11.1748C84.2827 10.2606 83.9838 9.54963 83.3897 9.04177C82.7938 8.53391 81.9159 8.27998 80.7581 8.27998H75.8032L74.5262 15.7963Z" fill="white"/>
<path d="M118.507 29.9654H105.736L102.774 35.8057H92.251L111.713 0.00170898H123.257L130 35.8057H119.426L118.507 29.9654ZM117.332 22.3983L115.544 10.7683L109.619 22.3983H117.332Z" fill="white"/>
<path d="M34.7057 22.1425L27.1589 0.00170898H38.6012L41.9555 11.9834" fill="white"/>
<path d="M51.427 0.00170898H62.8919L49.7905 17.2388H55.2695L28.1377 48L41.8067 22.7068L35.2266 22.6898L51.427 0.00170898Z" fill="#2CB1BC"/>
<path d="M40.6822 23.1774L33.8545 35.8059H33.4932L35.4853 24.4301L35.0521 23.1586" fill="white"/>
</svg>
