<svg width="40" height="48" viewBox="0 0 40 48" fill="none" xmlns="http://www.w3.org/2000/svg">
<path d="M23.8647 9.43444C26.4378 10.0018 28.9832 8.37469 29.5504 5.79984C30.1175 3.22565 28.4911 0.679966 25.9179 0.112685C23.3448 -0.453941 20.7994 1.17168 20.2322 3.74578C19.6659 6.32062 21.2923 8.86715 23.8647 9.43444Z" fill="white"/>
<path d="M39.1353 17.6933C39.2623 17.2364 39.2007 16.7472 38.9657 16.3345L38.901 16.2217C38.4262 15.3892 37.3778 15.0822 36.5291 15.528L36.2199 15.6898L35.4949 14.1778C35.9035 13.4393 35.946 12.5183 35.5226 11.7174C34.856 10.4596 33.295 9.97903 32.0361 10.6474C30.778 11.3141 30.2991 12.8758 30.9657 14.1338C31.39 14.9339 32.1757 15.4152 33.015 15.4918L33.8535 16.9304L31.062 18.3942L24.5796 12.5634C24.0685 11.9432 22.6668 11.0042 21.8701 10.6791C21.7281 10.6215 21.5846 10.5718 21.441 10.5267C21.441 10.5267 21.1208 10.4288 20.7674 10.3713L9.2698 8.50116C8.608 8.38116 7.92568 8.49478 7.33801 8.82225L1.89442 11.8674C1.08831 12.3173 0.797987 13.3343 1.24443 14.1432L1.26655 14.1834C1.66802 14.9134 2.54292 15.2369 3.32298 14.9456L9.13401 12.7764L14.923 14.6285L10.8481 24.4822L6.6241 35.1715L0.437474 44.2835C-0.262185 45.2067 -0.106716 46.5182 0.790021 47.2529L0.854683 47.3042C1.75395 48.0396 3.07445 47.9275 3.83793 47.0524L7.95389 42.1733C8.58176 41.4205 10.6358 39.2141 11.0206 38.3129L15.4174 32.0292L22.6414 37.9988L20.3735 45.1166C20.0226 46.2214 20.5928 47.4082 21.676 47.8233L21.7564 47.8549C22.8512 48.2739 24.0801 47.7555 24.5455 46.6815L27.92 38.7232C29.4014 36.1649 27.92 34.1448 26.8425 33.2017L21.0456 27.1082L24.1677 20.6548L28.5377 23.1437C29.317 23.6518 31.2392 23.322 32.051 22.8659L35.8561 20.3676L37.1253 22.5463L39.0248 21.5394L37.8392 19.0672L38.2905 18.7704C38.7038 18.5393 39.0083 18.1503 39.1353 17.6933Z" fill="white"/>
</svg>
