<svg width="32" height="43" viewBox="0 0 32 43" fill="none" xmlns="http://www.w3.org/2000/svg">
<path d="M26.6667 0C23.7258 0 21.3333 2.37755 21.3333 5.3V7.37056C20.7769 7.17446 20.1787 7.06672 19.5556 7.06672C18.1906 7.06672 16.9444 7.5795 16 8.42054C15.0557 7.5795 13.8094 7.06672 12.4444 7.06672C11.8212 7.06672 11.2231 7.17446 10.6667 7.37056V5.3C10.6667 2.37755 8.27417 0 5.33333 0C2.3925 0 0 2.37755 0 5.3V19.4334V26.5C0 35.2674 7.1775 42.4 16 42.4C24.8225 42.4 32 35.2674 32 26.5V5.3C32 2.37755 29.6075 0 26.6667 0ZM19.5555 10.6C20.5357 10.6 21.3333 11.3925 21.3333 12.3666V17.9705C20.7769 17.7744 20.1787 17.6666 19.5556 17.6666H17.7778V12.3666H17.7778C17.7778 11.3925 18.5752 10.6 19.5555 10.6ZM10.6667 12.3666C10.6667 11.3925 11.4642 10.6 12.4444 10.6C13.4247 10.6 14.2222 11.3925 14.2222 12.3666V17.6666H10.6667V12.3666ZM3.5555 5.3C3.55558 4.32588 4.35308 3.53336 5.33333 3.53336C6.31358 3.53336 7.11108 4.32588 7.11108 5.3V12.3666V17.6666H3.5555V5.3ZM28.4444 26.5C28.4444 33.3189 22.8618 38.8666 16 38.8666C9.13817 38.8666 3.55558 33.3189 3.55558 26.5V21.2H8.88892H16H19.5556C20.5358 21.2 21.3333 21.9925 21.3333 22.9666C21.3333 23.9408 20.5358 24.7333 19.5556 24.7333H8.88892C7.90708 24.7333 7.11117 25.5243 7.11117 26.4999C7.11117 27.4755 7.90717 28.2666 8.88892 28.2666H19.5556C22.4964 28.2666 24.8889 25.8891 24.8889 22.9666V19.4332V12.3666V5.3C24.8889 4.32588 25.6864 3.53336 26.6667 3.53336C27.6469 3.53336 28.4444 4.32588 28.4444 5.3V26.5Z" fill="white"/>
</svg>
